# AST/ASF file generated using VICON BodyLanguage
# -----------------------------------------------
:version 1.10
:name VICON
:units
  mass 1.0
  length 0.45
  angle deg
:documentation
   .ast/.asf automatically generated from VICON data using
   VICON BodyBuilder and BodyLanguage model FoxedUp or BRILLIANT.MOD
:root
   order TX TY TZ RX RY RZ
   axis XYZ
   position 0 0 0  
   orientation 0 0 0 
:bonedata
  begin
     id 1 
     name lhipjoint
     direction 0.64773 -0.699417 0.302095 
     length 2.48597 
     axis 0 0 0  XYZ
  end
  begin
     id 2 
     name lfemur
     direction 0.34202 -0.939693 0  
     length 6.71947  
     axis 0 0 20  XYZ
    dof rx ry rz
    limits (-160.0 20.0)
           (-70.0 70.0)
           (-60.0 70.0)
  end
  begin
     id 3 
     name ltibia
     direction 0.34202 -0.939693 0   
     length 8.08777   
     axis 0 0 20   XYZ
    dof rx
    limits (-10.0 170.0)
  end
  begin
     id 4 
     name lfoot
     direction 0.0808503 -0.222134 0.971658   
     length 2.08264   
     axis -90 7.62852e-016 20   XYZ
    dof rx rz
    limits (-45.0 90.0)
           (-70.0 20.0)
  end
  begin
     id 5 
     name ltoes
     direction 1.53502e-011 -4.22007e-011 1   
     length 1.04662   
     axis -90 7.62852e-016 20   XYZ
    dof rx
    limits (-90.0 20.0)
  end
  begin
     id 6 
     name rhipjoint
     direction -0.610924 -0.726792 0.313919   
     length 2.39233  
     axis 0 0 0  XYZ 
  end
  begin
     id 7 
     name rfemur
     direction -0.34202 -0.939693 0   
     length 6.96955   
     axis 0 0 -20   XYZ
    dof rx ry rz
    limits (-160.0 20.0)
           (-70.0 70.0)
           (-70.0 60.0)
  end
  begin
     id 8 
     name rtibia
     direction -0.34202 -0.939693 0   
     length 8.19584   
     axis 0 0 -20   XYZ
    dof rx
    limits (-10.0 170.0)
 end
 begin
     id 9 
     name rfoot
     direction -0.077777 -0.213691 0.9738   
     length 2.07539  
     axis -90 -7.62852e-016 -20   XYZ
    dof rx rz
    limits (-45.0 90.0)
           (-20.0 70.0)
  end
  begin
     id 10 
     name rtoes
     direction -1.53558e-011 -4.22006e-011 1   
     length 1.04381   
     axis -90 -7.62852e-016 -20   XYZ
    dof rx
    limits (-90.0 20.0)
  end
  begin
     id 11 
     name lowerback
     direction -0.00971646 0.996074 0.0879841   
     length 1.67643   
     axis 0 0 0   XYZ
    dof rx ry rz
    limits (-20.0 45.0)
           (-30.0 30.0)
           (-30.0 30.0)
  end
  begin
     id 12 
     name upperback
     direction 0.0127391 0.991676 0.128127   
     length 1.63741   
     axis 0 0 0   XYZ
    dof rx ry rz
    limits (-20.0 45.0)
           (-30.0 30.0)
           (-30.0 30.0)
  end
  begin
     id 13 
     name thorax
     direction 0.0167583 0.996049 0.0872067   
     length 1.65931   
     axis 0 0 0   XYZ
    dof rx ry rz
    limits (-20.0 45.0)
           (-30.0 30.0)
           (-30.0 30.0)
  end
  begin
     id 14 
     name lowerneck
     direction -0.0317829 0.998312 0.0486079   
     length 1.79021   
     axis 0 0 0   XYZ
    dof rx ry rz
    limits (-20.0 45.0)
           (-30.0 30.0)
           (-30.0 30.0)
  end
  begin
     id 15 
     name upperneck
     direction 0.0896851 0.972452 -0.215159   
     length 1.78797   
     axis 0 0 0   XYZ
    dof rx ry rz
    limits (-20.0 45.0)
           (-30.0 30.0)
           (-30.0 30.0)
  end
  begin
     id 16
     name head
     direction 0.0310949 0.996503 -0.0775582  
     length 1.81549  
     axis 0 0 0   XYZ
    dof rx ry rz
    limits (-20.0 45.0)
           (-30.0 30.0)
           (-30.0 30.0)
  end
  begin
     id 17 
     name lclavicle
     direction 0.853638 0.502051 -0.138733  
     length 3.31627  
     axis 0 0 0   XYZ
    dof ry rz
    limits (-20.0 10.0)
           (0.0 20.0)
  end
  begin
     id 18 
     name lhumerus
     direction 1 -4.48962e-011 -1.41788e-018   
     length 5.54893   
     axis 180 -30 -90   XYZ
    dof rx ry rz
    limits (-60.0 90.0)
           (-90.0 90.0)
           (-90.0 90.0)
  end
  begin
     id 19
     name lradius
     direction 1 -4.48962e-011 -4.95754e-027   
     length 3.02898   
     axis 180 -30 -90   XYZ
    dof rx
    limits (-10.0 170.0)
  end
  begin
     id 20
     name lwrist
     direction 1 -4.48952e-011 -1.03764e-026   
     length 1.51449   
     axis 9.09556e-015 90 90   XYZ
    dof ry
    limits (-180.0 0.0)
 end
  begin
     id 21 
     name lhand
     direction 1 -4.4902e-011 -2.07528e-026   
     length 0.640951   
     axis 1.3242e-014 90 90   XYZ
    dof rx rz
    limits (-90.0 90.0)
           (-45.0 45.0)
  end
  begin
     id 22 
     name lfingers
     direction 1 -4.49014e-011 -4.15056e-026   
     length 0.516751   
     axis 2.64841e-014 90 90   XYZ
    dof rx
    limits (0.0 90.0)
  end
  begin
     id 23
     name lthumb
     direction 0.707107 -6.35008e-011 0.707107   
     length 0.741954   
     axis -90 45 2.85299e-015   XYZ
    dof rx rz
    limits (-45.0 45.0)
           (-45.0 45.0)
  end
  begin
     id 24 
     name rclavicle
     direction -0.888531 0.455324 -0.0565039   
     length 3.20126  
     axis 0 0 0   XYZ 
    dof ry rz
    limits (-10.0 20.0)
           (-20.0 0.0)
  end
  begin
     id 25 
     name rhumerus
     direction -1 -4.48946e-011 -8.98298e-028  
     length 5.3519   
     axis 180 30 90   XYZ
    dof rx ry rz
    limits (-90.0 60.0)
           (-90.0 90.0)
           (-90.0 90.0)
  end
  begin
     id 26 
     name rradius
     direction -1 -4.4899e-011 -3.18779e-027   
     length 3.02531   
     axis 180 30 90   XYZ
    dof rx
    limits (-10.0 170.0)
  end
  begin
     id 27 
     name rwrist
     direction -1 -4.4897e-011 -1.03764e-026   
     length 1.51266   
     axis 9.09556e-015 -90 -90   XYZ
    dof ry
    limits (-180.0 0.0)
  end
  begin
     id 28
     name rhand
     direction -1 -4.48941e-011 -2.07528e-026   
     length 0.78389   
     axis 1.3242e-014 -90 -90   XYZ
    dof rx rz
    limits (-90.0 90.0)
           (-45.0 45.0)
  end
  begin
     id 29
     name rfingers
     direction -1 -4.49012e-011 -4.15056e-026   
     length 0.631992   
     axis 2.64841e-014 -90 -90   XYZ
    dof rx
    limits (0.0 90.0)
  end
  begin
     id 30
     name rthumb
     direction -0.707107 -6.3496e-011 0.707107   
     length 0.907418   
     axis -90 -45 -2.85299e-015   XYZ
    dof rx rz
    limits (-45.0 45.0)
           (-45.0 45.0)
  end
:hierarchy
  begin
    root lhipjoint rhipjoint lowerback
    lhipjoint lfemur
    lfemur ltibia
    ltibia lfoot
    lfoot ltoes
    rhipjoint rfemur
    rfemur rtibia
    rtibia rfoot
    rfoot rtoes
    lowerback upperback
    upperback thorax
    thorax lowerneck lclavicle rclavicle
    lowerneck upperneck
    upperneck head
    lclavicle lhumerus
    lhumerus lradius
    lradius lwrist
    lwrist lhand lthumb
    lhand lfingers
    rclavicle rhumerus
    rhumerus rradius
    rradius rwrist
    rwrist rhand rthumb
    rhand rfingers
  end

#!OML:ASF E:\Style3\Style3.ASF
:FULLY-SPECIFIED
:DEGREES
2403
root -0.963317 17.3987 2.06372 -498.441 104.159 -534.054
lowerback 16.6509 -4.90746 1.11876
upperback 1.31089 -6.0983 0.897013
thorax -7.91325 -2.92164 1.73454
lowerneck -1.41207 8.55956 -0.476587
upperneck -8.75807 11.2565 -5.51727
head -2.22314 5.85486 -1.81823
rclavicle 5.88403e-014 -2.8625e-014
rhumerus 5.01292 8.65998 -86.5008
rradius 127.237
rwrist 25.0595
rhand 40.0902 0.926835
rfingers 7.12502
rthumb 62.4699 -9.9694
lclavicle 5.88403e-014 -2.8625e-014
lhumerus 6.10366 -16.236 97.332
lradius 113.136
lwrist -18.1719
lhand 32.5565 40.1131
lfingers 7.12502
lthumb 55.9895 57.511
rfemur -60.2818 10.6775 2.92708
rtibia 33.468
rfoot -9.94598 -5.84032
rtoes -27.0283
lfemur -42.3566 -1.86196 -8.11754
ltibia 22.4669
lfoot -11.4102 32.9193
ltoes -17.6213
2404
root -0.935954 17.4106 2.09385 -498.859 104.424 -534.256
lowerback 16.5873 -5.05695 1.22682
upperback 1.26882 -6.26727 1.02812
thorax -7.91824 -3.00535 1.84998
lowerneck -1.3753 8.79571 -0.582343
upperneck -8.78057 11.5478 -5.85629
head -2.21554 6.01338 -1.91208
rclavicle 2.38542e-015 -2.38542e-015
rhumerus 4.79596 8.24632 -86.0902
rradius 127.41
rwrist 24.8013
rhand 39.9535 0.911601
rfingers 7.12502
rthumb 62.3566 -10.131
lclavicle 2.38542e-015 -2.38542e-015
lhumerus 5.99943 -17.1123 97.591
lradius 113.452
lwrist -15.9437
lhand 33.4613 40.192
lfingers 7.12502
lthumb 56.789 56.9524
rfemur -59.9297 10.8332 3.09811
rtibia 33.3498
rfoot -10.0156 -5.61206
rtoes -26.8571
lfemur -41.5604 -2.62467 -7.64351
ltibia 21.9367
lfoot -12.1067 33.6186
ltoes -16.1228
2405
root -0.91117 17.4169 2.11794 -498.927 104.531 -534.211
lowerback 16.2553 -5.27651 1.60279
upperback 1.26922 -6.49635 1.05901
thorax -7.77046 -3.132 1.69649
lowerneck -1.36126 8.99909 -0.59362
upperneck -8.7933 11.804 -6.0924
head -2.20151 6.14849 -1.98655
rclavicle 3.10104e-014 -1.19271e-014
rhumerus 4.74229 7.78577 -85.8978
rradius 127.425
rwrist 24.6473
rhand 39.5373 0.958105
rfingers 7.12502
rthumb 62.0106 -10.5226
lclavicle 3.10104e-014 -1.19271e-014
lhumerus 5.57963 -17.9381 98.0531
lradius 114.022
lwrist -13.71
lhand 33.8722 40.6406
lfingers 7.12502
lthumb 57.1505 57.1005
rfemur -59.6413 10.8112 3.27696
rtibia 33.1936
rfoot -10.0407 -5.40177
rtoes -26.8687
lfemur -40.9776 -3.4299 -7.18834
ltibia 21.4099
lfoot -12.1733 34.3138
ltoes -15.4713
2406
root -0.890814 17.4227 2.14232 -498.671 104.564 -533.879
lowerback 16.2237 -5.45952 1.79165
upperback 1.05898 -6.69594 1.22349
thorax -7.98084 -3.23206 1.82435
lowerneck -1.40572 9.17403 -0.531134
upperneck -8.53095 12.0191 -6.48562
head -2.07274 6.25605 -2.10376
rclavicle -2.38542e-014 -6.2816e-014
rhumerus 4.59591 7.48283 -85.5298
rradius 127.448
rwrist 24.6575
rhand 39.0488 0.697106
rfingers 7.12502
rthumb 61.6021 -11.2836
lclavicle -2.38542e-014 -6.2816e-014
lhumerus 6.21532 -18.9771 98.0645
lradius 113.809
lwrist -11.2212
lhand 34.2609 41.3116
lfingers 7.12502
lthumb 57.4915 57.4807
rfemur -59.3824 10.6962 3.44012
rtibia 33.002
rfoot -10.0191 -5.22457
rtoes -27.0017
lfemur -40.5005 -4.33539 -6.73155
ltibia 20.9097
lfoot -12.8059 34.9788
ltoes -13.9115
2407
root -0.872361 17.4349 2.17145 -499.161 104.767 -534.243
lowerback 15.953 -5.59049 2.00843
upperback 1.05779 -6.83908 1.24374
thorax -7.8546 -3.31182 1.73213
lowerneck -1.44161 9.3563 -0.271229
upperneck -8.44228 12.2445 -6.8846
head -1.98896 6.3684 -2.26212
rclavicle -7.15625e-015 -1.59028e-015
rhumerus 4.73415 7.07472 -85.4288
rradius 127.522
rwrist 24.7159
rhand 38.7786 0.504549
rfingers 7.12502
rthumb 61.3752 -11.7462
lclavicle -7.15625e-015 -1.59028e-015
lhumerus 6.59367 -19.8307 97.8111
lradius 114.105
lwrist -8.7793
lhand 35.4555 41.9365
lfingers 7.12502
lthumb 58.5333 57.1696
rfemur -59.1001 10.8486 3.63364
rtibia 32.7856
rfoot -10.018 -5.03938
rtoes -26.6642
lfemur -39.8652 -5.0194 -6.24533
ltibia 20.3806
lfoot -13.4998 35.6249
ltoes -12.6071
2408
root -0.843564 17.4506 2.2004 -499.96 105.193 -534.904
lowerback 15.5464 -5.66646 2.1026
upperback 1.07927 -6.93865 1.26349
thorax -7.61479 -3.36868 1.6798
lowerneck -1.45675 9.55531 -0.0209685
upperneck -8.3354 12.4902 -7.32197
head -1.89877 6.4915 -2.43128
rclavicle -5.1684e-014 2.62396e-014
rhumerus 4.95136 6.70386 -85.3593
rradius 127.642
rwrist 24.6691
rhand 38.685 0.28691
rfingers 7.12502
rthumb 61.2964 -12.0563
lclavicle -5.1684e-014 2.62396e-014
lhumerus 6.48147 -20.4813 97.813
lradius 114.731
lwrist -6.32207
lhand 35.9966 42.4688
lfingers 7.12502
lthumb 59.002 57.2558
rfemur -58.791 11.0664 3.83814
rtibia 32.5556
rfoot -10.0698 -4.65442
rtoes -26.2591
lfemur -39.0437 -5.64597 -5.82586
ltibia 19.7607
lfoot -13.7541 36.4679
ltoes -12.1287
2409
root -0.814192 17.4627 2.22843 -500.154 105.691 -534.919
lowerback 15.1053 -5.71807 2.07752
upperback 1.11749 -7.03474 1.20608
thorax -7.33374 -3.42168 1.60456
lowerneck -1.5941 9.74604 0.177144
upperneck -8.10431 12.7402 -7.62566
head -1.75699 6.60961 -2.53558
rclavicle -9.70069e-014 1.90833e-014
rhumerus 5.22917 6.33522 -85.2297
rradius 127.675
rwrist 24.7429
rhand 38.3219 0.165581
rfingers 7.12502
rthumb 60.9901 -12.5316
lclavicle -9.70069e-014 1.90833e-014
lhumerus 6.51669 -21.0566 97.8233
lradius 115.339
lwrist -3.81938
lhand 36.1381 42.7926
lfingers 7.12502
lthumb 59.1241 57.4606
rfemur -58.4409 11.0654 4.00342
rtibia 32.3291
rfoot -10.1144 -4.10436
rtoes -26.1869
lfemur -38.2049 -6.55482 -5.48629
ltibia 19.1245
lfoot -14.3291 37.4291
ltoes -11.0449
2410
root -0.796626 17.4699 2.25712 -500.241 106.067 -534.739
lowerback 14.9677 -5.78724 1.97153
upperback 1.11501 -7.15234 1.18004
thorax -7.25039 -3.47807 1.6455
lowerneck -1.74641 9.92226 0.301398
upperneck -7.88166 12.9783 -7.79816
head -1.62865 6.72037 -2.58591
rclavicle -4.13472e-014 -1.74931e-014
rhumerus 5.50292 6.16965 -84.8577
rradius 127.552
rwrist 24.7505
rhand 37.4752 -0.241439
rfingers 7.12502
rthumb 60.2713 -13.7338
lclavicle -4.13472e-014 -1.74931e-014
lhumerus 6.94353 -21.5534 97.6187
lradius 115.887
lwrist -1.277
lhand 35.5984 43.463
lfingers 7.12502
lthumb 58.6572 58.5797
rfemur -58.0508 11.164 4.06998
rtibia 32.1107
rfoot -10.0925 -3.78832
rtoes -25.9895
lfemur -37.4009 -7.67179 -5.0074
ltibia 18.4976
lfoot -16.2479 38.1706
ltoes -7.33691
2411
root -0.789464 17.4741 2.28736 -500.725 106.497 -534.965
lowerback 15.0143 -5.79744 1.75502
upperback 1.07594 -7.20006 1.20391
thorax -7.28778 -3.4943 1.80645
lowerneck -1.56063 10.0698 0.395073
upperneck -8.0676 13.1537 -8.02608
head -1.69211 6.81861 -2.69295
rclavicle 1.43125e-014 -5.08889e-014
rhumerus 5.71694 5.99527 -84.6162
rradius 127.507
rwrist 24.9567
rhand 36.8488 -0.509767
rfingers 7.12502
rthumb 59.7356 -14.5646
lclavicle 1.43125e-014 -5.08889e-014
lhumerus 7.54869 -21.9429 97.2451
lradius 116.379
lwrist 1.14441
lhand 34.671 43.8386
lfingers 7.12502
lthumb 57.8502 59.6936
rfemur -57.749 11.527 4.07577
rtibia 31.8919
rfoot -10.0191 -3.61738
rtoes -26.1207
lfemur -36.6042 -8.40937 -4.61267
ltibia 17.8745
lfoot -17.5687 38.7692
ltoes -4.52269
